<?xml version="1.0" encoding="UTF-8" standalone="no"?>
<!DOCTYPE svg PUBLIC "-//W3C//DTD SVG 1.1//EN" "http://www.w3.org/Graphics/SVG/1.1/DTD/svg11.dtd">
<svg xmlns="http://www.w3.org/2000/svg" version="1.1" viewBox="0.00 0.00 1010.00 700.00">
<g stroke-width="2.00" fill="none" stroke-linecap="butt">
<path stroke="#9aa2b3" vector-effect="non-scaling-stroke" d="
  M 555.96 91.75
  Q 410.27 110.90 289.18 193.42
  Q 287.56 194.52 285.70 195.39
  Q 285.23 195.61 284.82 195.29
  C 276.89 189.14 265.82 159.71 252.50 167.40
  C 240.90 174.09 234.59 187.99 234.43 201.00
  C 234.38 204.76 235.37 208.24 231.82 210.58
  C 230.10 211.72 222.38 217.38 220.79 216.26
  Q 209.82 208.49 197.29 210.75"
/>
<path stroke="#fff7ee" vector-effect="non-scaling-stroke" d="
  M 770.09 576.99
  Q 770.01 576.50 769.77 576.55
  C 760.58 578.33 759.51 570.35 759.25 563.75
  Q 757.44 516.57 755.23 469.34
  A 1.21 1.20 -6.6 0 1 756.22 468.10
  Q 762.61 466.89 766.59 461.53"
/>
<path stroke="#fff7ee" vector-effect="non-scaling-stroke" d="
  M 673.04 147.75
  Q 673.49 146.03 671.92 145.08
  Q 659.97 137.80 647.99 130.43
  A 0.80 0.80 0.0 0 1 648.03 129.04
  Q 656.26 124.60 664.56 120.28
  Q 666.44 119.30 668.33 120.66
  Q 674.59 125.14 684.10 130.88"
/>
<path stroke="#fff7ee" vector-effect="non-scaling-stroke" d="
  M 692.54 116.25
  Q 692.53 115.77 692.93 115.56
  Q 693.29 115.37 693.31 114.97
  C 694.83 92.99 656.31 96.51 643.25 98.74"
/>
<path stroke="#9aa2b3" vector-effect="non-scaling-stroke" d="
  M 568.00 106.96
  C 433.04 127.00 315.85 190.93 207.79 271.00"
/>
<path stroke="#e4d6ce" vector-effect="non-scaling-stroke" d="
  M 608.00 202.79
  L 591.21 172.48
  A 1.04 1.04 0.0 0 0 589.81 172.06
  C 545.11 195.82 496.71 201.35 447.31 207.31
  Q 444.33 207.67 441.46 208.50"
/>
<path stroke="#fff7ee" vector-effect="non-scaling-stroke" d="
  M 441.46 208.50
  Q 432.46 209.70 423.75 212.29"
/>
<path stroke="#e4d6ce" vector-effect="non-scaling-stroke" d="
  M 423.75 212.29
  Q 413.80 211.16 405.25 216.04"
/>
<path stroke="#fff7ee" vector-effect="non-scaling-stroke" d="
  M 405.25 216.04
  Q 371.59 221.42 340.43 235.15"
/>
<path stroke="#e4d6ce" vector-effect="non-scaling-stroke" d="
  M 340.43 235.15
  Q 279.07 256.08 223.62 289.61
  C 220.07 291.76 217.85 293.83 218.36 298.01
  Q 219.77 309.66 223.21 330.50
  Q 226.97 353.18 218.12 372.05"
/>
<path stroke="#e4cebd" vector-effect="non-scaling-stroke" d="
  M 579.96 357.25
  L 579.71 356.50
  Q 579.52 355.91 578.93 356.13
  L 569.74 359.58
  A 0.83 0.83 0.0 0 1 568.66 358.53
  C 580.98 322.73 577.59 284.96 570.11 248.12
  C 569.74 246.29 568.04 244.25 566.26 244.45
  C 522.35 249.38 473.09 242.87 441.46 208.50"
/>
<path stroke="#e4cebd" vector-effect="non-scaling-stroke" d="
  M 580.79 373.25
  C 579.99 373.55 579.44 374.18 579.36 375.09
  Q 577.56 394.78 573.54 411.75
  C 571.77 419.22 568.77 425.03 563.36 431.14
  Q 549.69 446.55 535.31 461.31
  C 522.11 474.84 506.72 487.34 487.49 490.45
  Q 484.90 490.87 484.00 492.07
  C 482.46 494.14 482.57 498.22 485.25 499.46"
/>
<path stroke="#fff7ee" vector-effect="non-scaling-stroke" d="
  M 485.25 499.46
  L 483.50 504.46"
/>
<path stroke="#e4dcd3" vector-effect="non-scaling-stroke" d="
  M 483.50 504.46
  C 483.18 507.89 484.46 509.94 487.30 512.07
  Q 511.92 530.51 519.95 560.13
  C 526.96 586.01 484.34 570.24 474.29 570.25"
/>
<path stroke="#fff7ee" vector-effect="non-scaling-stroke" d="
  M 474.29 570.25
  Q 441.06 544.87 402.01 529.81
  C 389.18 524.85 378.02 520.83 364.78 513.48
  C 364.15 513.13 363.77 512.46 363.25 511.96"
/>
<path stroke="#e4cebd" vector-effect="non-scaling-stroke" d="
  M 363.25 511.96
  C 391.09 488.88 389.67 452.58 378.45 421.75
  A 0.65 0.65 0.0 0 1 379.43 420.99
  C 389.28 427.72 392.58 449.08 393.94 460.01
  A 0.29 0.29 0.0 0 0 394.52 460.02
  Q 399.68 430.96 382.51 407.19
  Q 380.19 403.98 378.15 401.20
  A 0.58 0.58 0.0 0 1 378.80 400.31
  L 404.99 409.23
  A 1.53 1.50 40.0 0 0 406.18 409.14
  C 407.88 408.26 406.66 407.21 405.68 406.78
  C 357.70 386.03 331.05 347.20 328.61 294.90
  C 327.65 274.25 334.92 254.70 340.43 235.15"
/>
<path stroke="#e4cebd" vector-effect="non-scaling-stroke" d="
  M 405.25 216.04
  Q 431.28 274.98 490.53 300.22
  C 491.76 300.74 493.28 300.83 493.38 299.08
  A 1.91 1.90 18.1 0 0 492.51 297.38
  Q 443.80 266.08 423.75 212.29"
/>
<path stroke="#e4d6ce" vector-effect="non-scaling-stroke" d="
  M 363.25 511.96
  L 353.10 519.33
  A 0.54 0.54 0.0 0 1 352.24 518.83
  C 352.56 516.25 355.21 512.46 356.44 510.45
  A 1.63 1.63 0.0 0 0 355.83 508.17
  Q 352.66 506.44 349.18 506.84"
/>
<path stroke="#e4d6ce" vector-effect="non-scaling-stroke" d="
  M 339.75 512.46
  L 336.04 514.75"
/>
<path stroke="#e4d6ce" vector-effect="non-scaling-stroke" d="
  M 326.29 521.75
  C 320.79 526.91 309.86 536.54 302.54 538.25"
/>
<path stroke="#e4cebd" vector-effect="non-scaling-stroke" d="
  M 281.51 384.26
  C 279.60 408.93 305.54 426.65 324.65 435.69
  C 335.39 440.76 347.36 444.01 356.30 433.24
  A 2.17 2.15 -40.0 0 0 356.52 430.80
  Q 340.82 402.86 320.04 377.95
  Q 312.44 368.83 309.08 366.42
  C 305.12 363.58 291.39 357.97 287.83 363.84
  Q 282.40 372.76 281.51 384.26"
/>
<path stroke="#e4d6ce" vector-effect="non-scaling-stroke" d="
  M 551.07 485.07
  Q 540.22 487.63 528.79 489.00"
/>
<path stroke="#e4d6ce" vector-effect="non-scaling-stroke" d="
  M 513.83 490.01
  C 507.15 488.93 499.22 488.71 499.25 497.96"
/>
<path stroke="#c9bbb3" vector-effect="non-scaling-stroke" d="
  M 499.25 497.96
  Q 498.61 500.61 496.75 502.54"
/>
<path stroke="#e4d6ce" vector-effect="non-scaling-stroke" d="
  M 496.75 502.54
  L 485.25 499.46"
/>
<path stroke="#dde9ff" vector-effect="non-scaling-stroke" d="
  M 892.00 1170.46
  L 890.79 1171.36
  Q 890.37 1171.67 890.29 1172.18
  Q 889.79 1175.76 892.50 1177.96"
/>
<path stroke="#fff7ee" vector-effect="non-scaling-stroke" d="
  M 892.50 1177.96
  Q 890.73 1179.13 888.00 1180.25
  Q 864.59 1189.82 840.79 1195.00"
/>
<path stroke="#dde9ff" vector-effect="non-scaling-stroke" d="
  M 840.79 1195.00
  C 838.91 1193.00 836.31 1191.50 834.54 1189.85
  Q 819.97 1176.28 788.91 1149.59
  Q 785.17 1146.38 772.02 1133.17
  Q 771.60 1132.74 771.08 1133.04
  Q 769.77 1133.80 768.67 1134.92
  Q 753.91 1149.91 739.09 1164.84
  Q 735.75 1168.20 732.96 1172.00"
/>
<path stroke="#e4e4e4" vector-effect="non-scaling-stroke" d="
  M 682.25 1198.79
  C 681.02 1198.75 682.01 1196.44 681.97 1195.68
  C 679.20 1138.19 675.38 1089.97 669.73 1023.42
  C 665.40 972.38 662.54 932.05 661.22 886.25
  Q 660.98 878.07 658.44 873.56
  Q 630.95 824.87 603.56 776.13
  C 583.69 740.78 561.08 706.97 535.73 677.03
  Q 535.39 676.62 534.37 675.81
  Q 533.97 675.50 533.46 675.50
  C 519.96 675.54 512.71 674.24 501.93 665.56
  C 480.89 648.62 463.23 625.75 449.86 602.16
  C 441.61 587.62 436.68 576.85 422.35 567.94
  A 0.50 0.50 0.0 0 0 421.66 568.64
  C 452.26 616.86 479.45 666.32 502.37 718.66
  C 506.56 728.22 509.54 736.92 509.73 747.53
  C 510.80 808.56 486.22 868.13 453.69 919.44
  C 418.96 974.22 375.05 1022.75 325.96 1065.00"
/>
<path stroke="#fff7ee" vector-effect="non-scaling-stroke" d="
  M 325.96 1065.00
  C 301.12 1070.46 276.08 1068.94 261.71 1045.02
  Q 251.98 1028.83 244.85 1011.31
  C 244.07 1009.37 243.11 1008.10 241.85 1006.54"
/>
<path stroke="#fff7ee" vector-effect="non-scaling-stroke" d="
  M 166.58 828.39
  Q 136.99 787.53 110.21 744.75"
/>
<path stroke="#e4e4e4" vector-effect="non-scaling-stroke" d="
  M 474.29 570.25
  L 557.74 650.10
  A 1.63 1.63 0.0 0 0 560.13 649.95
  C 565.29 643.60 564.94 638.80 564.02 629.89
  C 563.57 625.52 564.45 618.48 562.65 614.78
  C 556.91 602.93 551.38 591.78 544.68 579.68
  C 528.74 550.93 516.69 517.82 483.50 504.46"
/>
<path stroke="#e4e4e4" vector-effect="non-scaling-stroke" d="
  M 496.75 502.54
  Q 514.07 515.40 526.78 532.56
  C 534.47 542.94 541.58 557.01 548.74 569.23
  Q 551.59 574.09 552.53 579.65
  C 552.73 580.85 552.97 581.60 553.76 582.63
  C 568.56 601.93 580.96 627.23 567.41 650.94
  Q 565.68 653.96 564.04 656.84
  A 1.13 1.13 0.0 0 0 564.22 658.19
  Q 600.80 695.39 628.56 739.49
  Q 645.32 766.13 661.93 792.86
  C 662.58 793.90 664.84 798.78 666.53 797.12
  Q 666.89 796.77 666.90 796.28
  Q 667.86 768.62 669.23 740.98
  Q 669.95 726.46 669.63 721.01
  C 667.70 687.78 650.22 664.80 627.66 640.84
  Q 607.35 619.26 584.63 590.29
  C 578.11 581.97 571.27 575.14 563.95 568.04
  Q 556.19 560.51 554.25 556.72
  C 542.55 533.96 527.89 507.22 501.94 498.31
  Q 501.01 497.99 499.25 497.96"
/>
<path stroke="#e4e4e4" vector-effect="non-scaling-stroke" d="
  M 524.06 663.69
  Q 490.68 629.19 456.89 594.87
  A 0.58 0.58 0.0 0 0 455.90 595.23
  C 454.63 610.41 512.31 669.86 527.35 668.29
  Q 528.22 668.20 527.65 667.54
  Q 526.53 666.23 524.06 663.69"
/>
<path stroke="#dde9ff" vector-effect="non-scaling-stroke" d="
  M 785.21 1112.00
  Q 778.56 1118.42 775.85 1127.32
  Q 775.70 1127.79 775.90 1128.24
  Q 776.38 1129.36 777.03 1129.98
  C 788.42 1140.72 804.73 1152.30 813.20 1160.30
  Q 823.81 1170.32 833.58 1181.19
  C 834.86 1182.62 840.20 1190.08 841.94 1185.48
  Q 842.11 1185.02 841.96 1184.56
  Q 831.54 1153.99 817.46 1125.05"
/>
<path stroke="#e4e4e4" vector-effect="non-scaling-stroke" d="
  M 679.46 1253.75
  Q 678.78 1254.04 678.14 1254.18
  C 543.22 1284.83 401.52 1274.37 274.98 1217.25
  A 1.22 1.22 0.0 0 1 274.30 1215.84
  L 291.79 1147.75"
/>
<path stroke="#e4dcd3" vector-effect="non-scaling-stroke" d="
  M 291.79 1147.75
  Q 293.81 1148.03 295.76 1148.76
  C 316.74 1156.64 333.78 1170.71 350.62 1186.46
  C 355.48 1191.01 359.57 1193.90 365.57 1189.93
  C 367.23 1188.84 369.17 1187.45 368.47 1185.54
  Q 366.95 1181.37 361.94 1175.29
  C 351.10 1162.13 337.10 1151.47 323.64 1141.12
  Q 322.13 1139.97 323.21 1138.61
  C 327.80 1132.86 345.88 1146.07 349.81 1149.19
  Q 368.84 1164.33 385.06 1182.40
  C 389.66 1187.54 394.31 1189.28 400.98 1187.73
  A 0.98 0.97 -6.3 0 0 401.75 1186.78
  L 401.76 1179.06
  A 1.69 1.69 0.0 0 1 404.34 1177.63
  C 405.99 1178.66 407.80 1179.97 409.83 1179.55
  C 420.10 1177.39 406.14 1157.35 403.17 1153.32
  Q 390.67 1136.42 376.05 1121.33
  C 367.66 1112.67 356.08 1108.42 347.63 1100.07
  A 0.33 0.33 0.0 0 1 347.93 1099.51
  C 362.01 1102.32 380.53 1109.02 389.81 1120.44
  Q 397.04 1129.35 404.18 1138.31
  Q 406.38 1141.06 409.32 1142.93
  A 2.23 2.22 -57.5 0 0 412.40 1142.24
  C 415.17 1137.88 415.34 1134.03 413.21 1129.08
  C 402.64 1104.50 386.84 1089.63 361.72 1080.49
  C 355.27 1078.14 350.88 1067.35 344.38 1066.91
  Q 335.14 1066.29 325.96 1065.00"
/>
<path stroke="#fff7ee" vector-effect="non-scaling-stroke" d="
  M 291.79 1147.75
  C 291.33 1147.22 290.86 1146.58 290.21 1146.26
  C 281.76 1142.08 271.71 1138.31 264.54 1134.05
  C 235.44 1116.77 212.83 1083.34 198.30 1053.49
  Q 197.20 1051.22 193.75 1049.71"
/>
<path stroke="#e4e4e4" vector-effect="non-scaling-stroke" d="
  M 678.71 1268.50
  Q 676.01 1268.41 675.17 1268.58
  C 539.35 1295.03 399.61 1287.23 271.58 1232.63
  A 1.01 1.00 21.1 0 0 270.24 1233.22
  Q 267.24 1241.93 264.06 1250.49
  C 261.34 1257.81 256.30 1256.14 251.68 1251.66
  Q 242.19 1242.48 232.66 1233.34
  Q 222.35 1223.45 217.25 1220.71
  Q 177.44 1199.32 154.97 1160.10
  Q 151.53 1154.09 148.21 1148.00"
/>
<path stroke="#dde1ee" vector-effect="non-scaling-stroke" d="
  M 840.79 1195.00
  Q 843.58 1221.17 855.33 1244.61
  C 856.79 1247.51 858.99 1249.55 862.24 1248.23
  Q 884.01 1239.42 905.76 1230.63
  C 908.46 1229.54 910.57 1229.28 909.67 1225.58
  Q 904.94 1206.09 899.94 1186.67
  C 898.75 1182.04 896.67 1179.74 892.50 1177.96"
/>
<path stroke="#c2c0ce" vector-effect="non-scaling-stroke" d="
  M 734.6746 1202.4576
  A 7.29 4.74 109.6 0 0 741.5854 1197.1800
  A 7.29 4.74 109.6 0 0 739.5654 1188.7224
  A 7.29 4.74 109.6 0 0 732.6546 1194.0000
  A 7.29 4.74 109.6 0 0 734.6746 1202.4576"
/>
<path stroke="#c2c0ce" vector-effect="non-scaling-stroke" d="
  M 776.73 1305.52
  C 778.54 1307.88 781.13 1307.63 781.37 1304.39
  Q 782.56 1288.44 783.73 1272.49
  C 783.79 1271.69 783.59 1271.16 783.45 1270.37
  Q 783.37 1269.91 783.08 1269.53
  L 753.97 1230.53
  Q 753.57 1230.00 752.93 1230.15
  C 748.23 1231.26 749.46 1261.51 749.76 1265.60
  C 749.96 1268.33 749.83 1270.11 751.58 1272.42
  Q 764.12 1289.01 776.73 1305.52"
/>
<path stroke="#97b4ca" vector-effect="non-scaling-stroke" d="
  M 653.16 1333.33
  Q 606.58 1343.65 554.32 1344.10
  C 480.25 1344.75 410.64 1338.89 340.01 1322.49
  Q 269.75 1306.18 206.10 1273.63"
/>
<path stroke="#b3c7d5" vector-effect="non-scaling-stroke" d="
  M 593.05 1495.82
  L 588.41 1489.14
  Q 588.11 1488.70 587.58 1488.70
  C 530.60 1488.65 473.77 1501.41 421.93 1524.93
  C 407.96 1531.28 387.87 1532.93 374.00 1533.70
  Q 373.31 1533.74 372.04 1535.13"
/>
<path stroke="#dda685" vector-effect="non-scaling-stroke" d="
  M 374.96 1946.00
  C 371.82 1947.06 368.55 1948.42 365.50 1948.95
  C 331.31 1954.87 311.34 1902.01 303.50 1877.46"
/>
<path stroke="#fff7ee" vector-effect="non-scaling-stroke" d="
  M 303.50 1877.46
  C 307.20 1870.99 308.21 1861.47 304.81 1854.26
  Q 304.59 1853.79 304.12 1853.56
  Q 301.96 1852.47 299.79 1853.25"
/>
<path stroke="#dda685" vector-effect="non-scaling-stroke" d="
  M 299.79 1853.25
  Q 298.99 1845.28 304.00 1839.00
  Q 312.69 1828.08 323.37 1818.70"
/>
<path stroke="#ddae96" vector-effect="non-scaling-stroke" d="
  M 299.79 1853.25
  C 300.99 1861.89 303.12 1870.14 293.57 1874.48
  C 288.82 1876.64 284.98 1874.78 280.80 1879.03
  Q 276.14 1883.75 271.42 1888.43
  C 269.11 1890.72 270.76 1892.68 271.74 1894.79
  Q 271.99 1895.31 271.57 1895.71
  C 237.25 1928.57 197.93 1951.84 153.98 1969.58
  A 1.63 1.63 0.0 0 0 153.26 1972.04
  L 156.21 1976.16
  A 1.59 1.58 60.3 0 0 158.13 1976.69
  Q 229.69 1945.52 287.04 1892.78
  Q 295.31 1885.16 303.50 1877.46"
/>
<path stroke="#834c2a" vector-effect="non-scaling-stroke" d="
  M 77.79 2074.75
  Q 75.93 2069.13 74.86 2067.17
  C 63.70 2046.67 55.32 2025.41 64.24 2001.99
  Q 70.40 1985.80 82.02 1967.77
  C 82.31 1967.32 82.43 1966.03 82.46 1965.50"
/>
</g>
<path fill="#ffffff" d="
  M 555.96 91.75
  Q 410.27 110.90 289.18 193.42
  Q 287.56 194.52 285.70 195.39
  Q 285.23 195.61 284.82 195.29
  C 276.89 189.14 265.82 159.71 252.50 167.40
  C 240.90 174.09 234.59 187.99 234.43 201.00
  C 234.38 204.76 235.37 208.24 231.82 210.58
  C 230.10 211.72 222.38 217.38 220.79 216.26
  Q 209.82 208.49 197.29 210.75
  Q 187.87 179.17 187.15 146.19
  C 187.13 145.59 187.72 144.34 188.24 143.81
  C 266.63 62.01 368.44 3.63 484.93 8.31
  Q 486.02 8.36 487.81 9.94
  Q 528.09 45.68 555.96 91.75
  Z"
/>
<path fill="#ffefdd" d="
  M 770.09 576.99
  Q 770.01 576.50 769.77 576.55
  C 760.58 578.33 759.51 570.35 759.25 563.75
  Q 757.44 516.57 755.23 469.34
  A 1.21 1.20 -6.6 0 1 756.22 468.10
  Q 762.61 466.89 766.59 461.53
  Q 787.13 460.99 805.65 451.90
  C 807.27 451.11 807.11 450.36 807.00 448.75
  Q 804.58 413.01 804.32 372.24
  C 803.97 318.49 788.65 264.32 772.03 213.57
  A 2.48 2.48 0.0 0 0 770.28 211.95
  C 731.98 202.27 699.76 186.30 678.67 151.37
  Q 677.48 149.39 673.04 147.75
  Q 673.49 146.03 671.92 145.08
  Q 659.97 137.80 647.99 130.43
  A 0.80 0.80 0.0 0 1 648.03 129.04
  Q 656.26 124.60 664.56 120.28
  Q 666.44 119.30 668.33 120.66
  Q 674.59 125.14 684.10 130.88
  L 683.76 134.33
  Q 683.71 134.86 684.04 135.27
  Q 692.62 145.85 706.92 149.58
  C 716.19 151.99 717.17 144.31 714.12 138.08
  Q 707.21 124.02 693.70 116.04
  Q 693.18 115.74 692.54 116.25
  Q 692.53 115.77 692.93 115.56
  Q 693.29 115.37 693.31 114.97
  C 694.83 92.99 656.31 96.51 643.25 98.74
  L 641.78 94.02
  Q 641.63 93.54 641.92 93.12
  Q 645.63 87.71 651.57 87.13
  Q 676.05 84.75 691.50 84.23
  C 712.91 83.53 730.47 89.77 747.44 103.32
  Q 772.32 123.20 793.59 144.16
  C 805.15 155.57 816.05 169.20 823.29 184.32
  Q 826.14 190.28 830.43 202.98
  C 860.92 293.20 892.97 382.57 908.26 477.00
  C 913.80 511.20 904.97 533.10 870.99 545.23
  C 852.02 552.01 833.31 556.51 814.25 561.24
  Q 803.42 563.93 780.49 570.97
  Q 773.82 573.02 770.09 576.99
  Z"
/>
<path fill="#344466" d="
  M 555.96 91.75
  Q 563.79 97.95 568.00 106.96
  C 433.04 127.00 315.85 190.93 207.79 271.00
  Q 207.33 270.18 207.11 269.27
  Q 205.25 261.58 203.34 253.91
  C 200.14 241.09 172.50 222.00 196.72 212.08
  Q 197.20 211.88 197.24 211.37
  L 197.29 210.75
  Q 209.82 208.49 220.79 216.26
  C 222.38 217.38 230.10 211.72 231.82 210.58
  C 235.37 208.24 234.38 204.76 234.43 201.00
  C 234.59 187.99 240.90 174.09 252.50 167.40
  C 265.82 159.71 276.89 189.14 284.82 195.29
  Q 285.23 195.61 285.70 195.39
  Q 287.56 194.52 289.18 193.42
  Q 410.27 110.90 555.96 91.75
  Z"
/>
<path fill="#ffffff" d="
  M 692.54 116.25
  L 684.10 130.88
  Q 674.59 125.14 668.33 120.66
  Q 666.44 119.30 664.56 120.28
  Q 656.26 124.60 648.03 129.04
  A 0.80 0.80 0.0 0 0 647.99 130.43
  Q 659.97 137.80 671.92 145.08
  Q 673.49 146.03 673.04 147.75
  Q 647.53 183.55 608.00 202.79
  L 591.21 172.48
  A 1.04 1.04 0.0 0 0 589.81 172.06
  C 545.11 195.82 496.71 201.35 447.31 207.31
  Q 444.33 207.67 441.46 208.50
  Q 432.46 209.70 423.75 212.29
  Q 413.80 211.16 405.25 216.04
  Q 371.59 221.42 340.43 235.15
  Q 279.07 256.08 223.62 289.61
  C 220.07 291.76 217.85 293.83 218.36 298.01
  Q 219.77 309.66 223.21 330.50
  Q 226.97 353.18 218.12 372.05
  Q 209.57 374.51 201.45 377.15
  C 177.17 385.05 151.59 392.65 126.09 395.05
  C 115.50 396.04 100.17 393.29 109.98 378.38
  Q 149.85 317.79 206.70 272.69
  Q 207.53 272.04 207.79 271.00
  C 315.85 190.93 433.04 127.00 568.00 106.96
  Q 568.41 107.32 569.00 107.25
  Q 606.14 103.12 643.25 98.74
  C 656.31 96.51 694.83 92.99 693.31 114.97
  Q 693.29 115.37 692.93 115.56
  Q 692.53 115.77 692.54 116.25
  Z"
/>
<path fill="#c9ad9d" d="
  M 608.00 202.79
  C 607.75 203.06 607.66 203.42 607.82 203.78
  Q 639.79 279.36 603.33 352.57
  Q 603.07 353.09 602.64 352.70
  Q 601.87 351.97 602.43 350.61
  Q 610.66 330.48 611.80 309.39
  A 0.86 0.86 0.0 0 0 610.19 308.93
  Q 597.17 332.99 580.62 354.30
  C 579.84 355.30 579.92 356.06 579.96 357.25
  L 579.71 356.50
  Q 579.52 355.91 578.93 356.13
  L 569.74 359.58
  A 0.83 0.83 0.0 0 1 568.66 358.53
  C 580.98 322.73 577.59 284.96 570.11 248.12
  C 569.74 246.29 568.04 244.25 566.26 244.45
  C 522.35 249.38 473.09 242.87 441.46 208.50
  Q 444.33 207.67 447.31 207.31
  C 496.71 201.35 545.11 195.82 589.81 172.06
  A 1.04 1.04 0.0 0 1 591.21 172.48
  L 608.00 202.79
  Z"
/>
<path fill="#ffefdd" d="
  M 441.46 208.50
  C 473.09 242.87 522.35 249.38 566.26 244.45
  C 568.04 244.25 569.74 246.29 570.11 248.12
  C 577.59 284.96 580.98 322.73 568.66 358.53
  A 0.83 0.83 0.0 0 0 569.74 359.58
  L 578.93 356.13
  Q 579.52 355.91 579.71 356.50
  L 579.96 357.25
  Q 579.59 365.30 580.79 373.25
  C 579.99 373.55 579.44 374.18 579.36 375.09
  Q 577.56 394.78 573.54 411.75
  C 571.77 419.22 568.77 425.03 563.36 431.14
  Q 549.69 446.55 535.31 461.31
  C 522.11 474.84 506.72 487.34 487.49 490.45
  Q 484.90 490.87 484.00 492.07
  C 482.46 494.14 482.57 498.22 485.25 499.46
  L 483.50 504.46
  C 483.18 507.89 484.46 509.94 487.30 512.07
  Q 511.92 530.51 519.95 560.13
  C 526.96 586.01 484.34 570.24 474.29 570.25
  Q 441.06 544.87 402.01 529.81
  C 389.18 524.85 378.02 520.83 364.78 513.48
  C 364.15 513.13 363.77 512.46 363.25 511.96
  C 391.09 488.88 389.67 452.58 378.45 421.75
  A 0.65 0.65 0.0 0 1 379.43 420.99
  C 389.28 427.72 392.58 449.08 393.94 460.01
  A 0.29 0.29 0.0 0 0 394.52 460.02
  Q 399.68 430.96 382.51 407.19
  Q 380.19 403.98 378.15 401.20
  A 0.58 0.58 0.0 0 1 378.80 400.31
  L 404.99 409.23
  A 1.53 1.50 40.0 0 0 406.18 409.14
  C 407.88 408.26 406.66 407.21 405.68 406.78
  C 357.70 386.03 331.05 347.20 328.61 294.90
  C 327.65 274.25 334.92 254.70 340.43 235.15
  Q 371.59 221.42 405.25 216.04
  Q 431.28 274.98 490.53 300.22
  C 491.76 300.74 493.28 300.83 493.38 299.08
  A 1.91 1.90 18.1 0 0 492.51 297.38
  Q 443.80 266.08 423.75 212.29
  Q 432.46 209.70 441.46 208.50
  Z"
/>
<path fill="#c9ad9d" d="
  M 423.75 212.29
  Q 443.80 266.08 492.51 297.38
  A 1.91 1.90 18.1 0 1 493.38 299.08
  C 493.28 300.83 491.76 300.74 490.53 300.22
  Q 431.28 274.98 405.25 216.04
  Q 413.80 211.16 423.75 212.29
  Z"
/>
<path fill="#c9ad9d" d="
  M 340.43 235.15
  C 334.92 254.70 327.65 274.25 328.61 294.90
  C 331.05 347.20 357.70 386.03 405.68 406.78
  C 406.66 407.21 407.88 408.26 406.18 409.14
  A 1.53 1.50 40.0 0 1 404.99 409.23
  L 378.80 400.31
  A 0.58 0.58 0.0 0 0 378.15 401.20
  Q 380.19 403.98 382.51 407.19
  Q 399.68 430.96 394.52 460.02
  A 0.29 0.29 0.0 0 1 393.94 460.01
  C 392.58 449.08 389.28 427.72 379.43 420.99
  A 0.65 0.65 0.0 0 0 378.45 421.75
  C 389.67 452.58 391.09 488.88 363.25 511.96
  L 353.10 519.33
  A 0.54 0.54 0.0 0 1 352.24 518.83
  C 352.56 516.25 355.21 512.46 356.44 510.45
  A 1.63 1.63 0.0 0 0 355.83 508.17
  Q 352.66 506.44 349.18 506.84
  Q 347.28 501.83 341.86 503.94
  Q 341.36 504.14 341.11 504.61
  Q 339.13 508.22 339.75 512.46
  L 336.04 514.75
  L 335.22 504.55
  A 1.22 1.21 62.5 0 0 333.07 503.87
  Q 326.49 511.86 326.29 521.75
  C 320.79 526.91 309.86 536.54 302.54 538.25
  C 304.41 528.94 306.49 520.44 306.50 510.86
  Q 306.50 510.30 305.97 510.11
  C 304.85 509.71 303.79 510.27 303.42 511.46
  Q 291.83 547.85 252.76 548.36
  Q 251.15 548.39 250.57 546.62
  Q 250.42 546.18 250.89 546.16
  Q 278.33 545.07 281.27 517.72
  C 281.50 515.56 269.79 503.84 266.08 499.92
  C 264.35 498.09 263.34 497.20 260.68 496.79
  C 252.35 495.54 246.74 491.66 240.55 487.09
  A 1.36 1.36 0.0 0 0 239.12 486.98
  C 224.03 494.97 211.20 497.86 195.05 489.73
  A 0.86 0.86 0.0 0 1 195.26 488.12
  Q 197.44 487.65 200.25 487.52
  C 214.90 486.86 223.00 476.68 224.00 462.68
  Q 224.04 462.13 223.76 461.65
  Q 214.55 445.46 214.47 426.71
  A 1.23 1.22 77.4 0 0 212.73 425.60
  C 204.60 429.39 196.83 433.12 187.53 433.99
  C 176.19 435.05 164.78 432.18 154.58 427.14
  A 0.51 0.51 0.0 0 1 154.83 426.17
  C 160.19 426.33 165.81 428.35 170.87 427.95
  C 198.34 425.83 214.89 399.94 218.42 374.98
  Q 218.73 372.80 218.12 372.05
  Q 226.97 353.18 223.21 330.50
  Q 219.77 309.66 218.36 298.01
  C 217.85 293.83 220.07 291.76 223.62 289.61
  Q 279.07 256.08 340.43 235.15
  Z
  M 281.51 384.26
  C 279.60 408.93 305.54 426.65 324.65 435.69
  C 335.39 440.76 347.36 444.01 356.30 433.24
  A 2.17 2.15 -40.0 0 0 356.52 430.80
  Q 340.82 402.86 320.04 377.95
  Q 312.44 368.83 309.08 366.42
  C 305.12 363.58 291.39 357.97 287.83 363.84
  Q 282.40 372.76 281.51 384.26
  Z
  M 243.30 473.94
  C 244.77 476.45 255.17 488.20 258.84 485.80
  A 1.54 1.53 -24.4 0 0 259.49 484.09
  Q 255.98 471.34 254.52 457.93
  C 254.21 454.99 254.27 450.57 253.43 446.77
  Q 253.31 446.25 252.81 446.04
  Q 251.04 445.28 249.39 447.17
  C 243.34 454.10 238.12 465.09 243.30 473.94
  Z"
/>
<path fill="#ffefdd" d="
  M 324.65 435.69
  C 305.54 426.65 279.60 408.93 281.51 384.26
  Q 282.40 372.76 287.83 363.84
  C 291.39 357.97 305.12 363.58 309.08 366.42
  Q 312.44 368.83 320.04 377.95
  Q 340.82 402.86 356.52 430.80
  A 2.17 2.15 -40.0 0 1 356.30 433.24
  C 347.36 444.01 335.39 440.76 324.65 435.69
  Z"
/>
<path fill="#c9ad9d" d="
  M 580.79 373.25
  Q 592.60 413.78 630.73 431.03
  A 0.25 0.25 0.0 0 1 630.60 431.51
  Q 607.52 428.39 586.55 418.56
  C 586.01 418.31 584.35 417.89 584.00 418.01
  Q 582.38 418.57 582.66 419.79
  C 586.12 434.72 589.23 465.94 573.40 475.51
  A 0.56 0.56 0.0 0 1 572.58 474.86
  Q 576.36 463.45 572.13 452.10
  Q 571.67 450.88 570.60 450.75
  A 1.57 1.55 13.2 0 0 568.97 451.75
  Q 562.27 469.67 551.07 485.07
  Q 540.22 487.63 528.79 489.00
  L 526.00 476.75
  A 1.73 1.73 0.0 0 0 522.87 476.18
  L 513.83 490.01
  C 507.15 488.93 499.22 488.71 499.25 497.96
  Q 498.61 500.61 496.75 502.54
  L 485.25 499.46
  C 482.57 498.22 482.46 494.14 484.00 492.07
  Q 484.90 490.87 487.49 490.45
  C 506.72 487.34 522.11 474.84 535.31 461.31
  Q 549.69 446.55 563.36 431.14
  C 568.77 425.03 571.77 419.22 573.54 411.75
  Q 577.56 394.78 579.36 375.09
  C 579.44 374.18 579.99 373.55 580.79 373.25
  Z"
/>
<path fill="#ffffff" d="
  M 766.59 461.53
  Q 762.61 466.89 756.22 468.10
  A 1.21 1.20 -6.6 0 0 755.23 469.34
  Q 757.44 516.57 759.25 563.75
  C 759.51 570.35 760.58 578.33 769.77 576.55
  Q 770.01 576.50 770.09 576.99
  Q 755.93 622.14 729.85 661.32
  C 718.86 677.83 712.10 691.60 709.09 710.76
  A 1.04 1.03 18.1 0 1 707.59 711.52
  C 703.67 709.52 679.93 696.60 677.57 697.09
  Q 676.85 697.23 677.10 697.92
  Q 687.92 727.08 705.20 752.09
  C 713.46 764.06 724.28 776.38 734.15 788.09
  C 756.32 814.43 778.48 843.43 791.59 875.52
  C 810.98 922.95 825.63 977.03 820.46 1028.75
  Q 820.35 1029.83 821.65 1031.59
  C 849.39 1069.28 866.96 1114.39 883.81 1157.70
  Q 886.70 1165.13 892.00 1170.46
  L 890.79 1171.36
  Q 890.37 1171.67 890.29 1172.18
  Q 889.79 1175.76 892.50 1177.96
  Q 890.73 1179.13 888.00 1180.25
  Q 864.59 1189.82 840.79 1195.00
  C 838.91 1193.00 836.31 1191.50 834.54 1189.85
  Q 819.97 1176.28 788.91 1149.59
  Q 785.17 1146.38 772.02 1133.17
  Q 771.60 1132.74 771.08 1133.04
  Q 769.77 1133.80 768.67 1134.92
  Q 753.91 1149.91 739.09 1164.84
  Q 735.75 1168.20 732.96 1172.00
  Q 731.58 1172.24 731.25 1172.49
  C 715.89 1184.34 701.09 1193.44 682.25 1198.79
  C 681.02 1198.75 682.01 1196.44 681.97 1195.68
  C 679.20 1138.19 675.38 1089.97 669.73 1023.42
  C 665.40 972.38 662.54 932.05 661.22 886.25
  Q 660.98 878.07 658.44 873.56
  Q 630.95 824.87 603.56 776.13
  C 583.69 740.78 561.08 706.97 535.73 677.03
  Q 535.39 676.62 534.37 675.81
  Q 533.97 675.50 533.46 675.50
  C 519.96 675.54 512.71 674.24 501.93 665.56
  C 480.89 648.62 463.23 625.75 449.86 602.16
  C 441.61 587.62 436.68 576.85 422.35 567.94
  A 0.50 0.50 0.0 0 0 421.66 568.64
  C 452.26 616.86 479.45 666.32 502.37 718.66
  C 506.56 728.22 509.54 736.92 509.73 747.53
  C 510.80 808.56 486.22 868.13 453.69 919.44
  C 418.96 974.22 375.05 1022.75 325.96 1065.00
  C 301.12 1070.46 276.08 1068.94 261.71 1045.02
  Q 251.98 1028.83 244.85 1011.31
  C 244.07 1009.37 243.11 1008.10 241.85 1006.54
  Q 243.16 1006.61 243.53 1006.00
  Q 262.29 975.48 285.14 947.89
  Q 286.59 946.14 286.54 942.75
  Q 286.10 910.75 285.78 878.65
  A 0.62 0.62 0.0 0 0 284.95 878.07
  Q 283.31 878.66 281.88 880.13
  Q 273.87 888.38 265.64 896.37
  C 262.72 899.21 259.41 900.83 255.83 898.67
  Q 210.71 871.53 172.75 831.74
  Q 171.29 830.22 166.58 828.39
  Q 136.99 787.53 110.21 744.75
  C 113.20 729.82 125.76 715.09 136.59 704.93
  C 151.88 690.59 166.70 678.37 182.69 662.32
  C 197.41 647.54 211.29 631.96 225.99 617.13
  C 236.74 606.27 250.12 594.41 260.43 583.68
  Q 280.89 562.38 300.97 540.72
  Q 301.98 539.64 302.54 538.25
  C 309.86 536.54 320.79 526.91 326.29 521.75
  Q 333.26 521.07 336.04 514.75
  L 339.75 512.46
  C 342.20 511.99 349.96 509.82 349.18 506.84
  Q 352.66 506.44 355.83 508.17
  A 1.63 1.63 0.0 0 1 356.44 510.45
  C 355.21 512.46 352.56 516.25 352.24 518.83
  A 0.54 0.54 0.0 0 0 353.10 519.33
  L 363.25 511.96
  C 363.77 512.46 364.15 513.13 364.78 513.48
  C 378.02 520.83 389.18 524.85 402.01 529.81
  Q 441.06 544.87 474.29 570.25
  L 557.74 650.10
  A 1.63 1.63 0.0 0 0 560.13 649.95
  C 565.29 643.60 564.94 638.80 564.02 629.89
  C 563.57 625.52 564.45 618.48 562.65 614.78
  C 556.91 602.93 551.38 591.78 544.68 579.68
  C 528.74 550.93 516.69 517.82 483.50 504.46
  L 485.25 499.46
  L 496.75 502.54
  Q 514.07 515.40 526.78 532.56
  C 534.47 542.94 541.58 557.01 548.74 569.23
  Q 551.59 574.09 552.53 579.65
  C 552.73 580.85 552.97 581.60 553.76 582.63
  C 568.56 601.93 580.96 627.23 567.41 650.94
  Q 565.68 653.96 564.04 656.84
  A 1.13 1.13 0.0 0 0 564.22 658.19
  Q 600.80 695.39 628.56 739.49
  Q 645.32 766.13 661.93 792.86
  C 662.58 793.90 664.84 798.78 666.53 797.12
  Q 666.89 796.77 666.90 796.28
  Q 667.86 768.62 669.23 740.98
  Q 669.95 726.46 669.63 721.01
  C 667.70 687.78 650.22 664.80 627.66 640.84
  Q 607.35 619.26 584.63 590.29
  C 578.11 581.97 571.27 575.14 563.95 568.04
  Q 556.19 560.51 554.25 556.72
  C 542.55 533.96 527.89 507.22 501.94 498.31
  Q 501.01 497.99 499.25 497.96
  C 499.22 488.71 507.15 488.93 513.83 490.01
  Q 520.71 494.38 527.80 490.40
  C 528.31 490.11 528.59 489.52 528.79 489.00
  Q 540.22 487.63 551.07 485.07
  Q 551.25 485.18 551.36 485.26
  Q 551.61 485.43 551.90 485.38
  Q 584.34 480.57 616.99 483.76
  C 622.09 484.25 629.28 477.93 633.44 475.11
  C 645.52 466.93 653.39 482.41 665.49 478.38
  C 679.33 473.77 695.81 471.17 706.20 467.98
  C 714.45 465.44 724.02 459.91 732.23 458.11
  Q 749.62 454.32 766.59 461.53
  Z
  M 524.06 663.69
  Q 490.68 629.19 456.89 594.87
  A 0.58 0.58 0.0 0 0 455.90 595.23
  C 454.63 610.41 512.31 669.86 527.35 668.29
  Q 528.22 668.20 527.65 667.54
  Q 526.53 666.23 524.06 663.69
  Z
  M 785.21 1112.00
  Q 778.56 1118.42 775.85 1127.32
  Q 775.70 1127.79 775.90 1128.24
  Q 776.38 1129.36 777.03 1129.98
  C 788.42 1140.72 804.73 1152.30 813.20 1160.30
  Q 823.81 1170.32 833.58 1181.19
  C 834.86 1182.62 840.20 1190.08 841.94 1185.48
  Q 842.11 1185.02 841.96 1184.56
  Q 831.54 1153.99 817.46 1125.05
  Q 809.08 1106.90 799.73 1089.80
  A 1.53 1.53 0.0 0 0 797.06 1089.76
  Q 790.65 1100.65 785.21 1112.00
  Z"
/>
<path fill="#c8c8c8" d="
  M 499.25 497.96
  Q 501.01 497.99 501.94 498.31
  C 527.89 507.22 542.55 533.96 554.25 556.72
  Q 556.19 560.51 563.95 568.04
  C 571.27 575.14 578.11 581.97 584.63 590.29
  Q 607.35 619.26 627.66 640.84
  C 650.22 664.80 667.70 687.78 669.63 721.01
  Q 669.95 726.46 669.23 740.98
  Q 667.86 768.62 666.90 796.28
  Q 666.89 796.77 666.53 797.12
  C 664.84 798.78 662.58 793.90 661.93 792.86
  Q 645.32 766.13 628.56 739.49
  Q 600.80 695.39 564.22 658.19
  A 1.13 1.13 0.0 0 1 564.04 656.84
  Q 565.68 653.96 567.41 650.94
  C 580.96 627.23 568.56 601.93 553.76 582.63
  C 552.97 581.60 552.73 580.85 552.53 579.65
  Q 551.59 574.09 548.74 569.23
  C 541.58 557.01 534.47 542.94 526.78 532.56
  Q 514.07 515.40 496.75 502.54
  Q 498.61 500.61 499.25 497.96
  Z"
/>
<path fill="#c8c8c8" d="
  M 483.50 504.46
  C 516.69 517.82 528.74 550.93 544.68 579.68
  C 551.38 591.78 556.91 602.93 562.65 614.78
  C 564.45 618.48 563.57 625.52 564.02 629.89
  C 564.94 638.80 565.29 643.60 560.13 649.95
  A 1.63 1.63 0.0 0 1 557.74 650.10
  L 474.29 570.25
  C 484.34 570.24 526.96 586.01 519.95 560.13
  Q 511.92 530.51 487.30 512.07
  C 484.46 509.94 483.18 507.89 483.50 504.46
  Z"
/>
<path fill="#c8c8c8" d="
  M 682.25 1198.79
  L 681.93 1199.03
  Q 681.50 1199.35 681.48 1199.89
  L 679.46 1253.75
  Q 678.78 1254.04 678.14 1254.18
  C 543.22 1284.83 401.52 1274.37 274.98 1217.25
  A 1.22 1.22 0.0 0 1 274.30 1215.84
  L 291.79 1147.75
  Q 293.81 1148.03 295.76 1148.76
  C 316.74 1156.64 333.78 1170.71 350.62 1186.46
  C 355.48 1191.01 359.57 1193.90 365.57 1189.93
  C 367.23 1188.84 369.17 1187.45 368.47 1185.54
  Q 366.95 1181.37 361.94 1175.29
  C 351.10 1162.13 337.10 1151.47 323.64 1141.12
  Q 322.13 1139.97 323.21 1138.61
  C 327.80 1132.86 345.88 1146.07 349.81 1149.19
  Q 368.84 1164.33 385.06 1182.40
  C 389.66 1187.54 394.31 1189.28 400.98 1187.73
  A 0.98 0.97 -6.3 0 0 401.75 1186.78
  L 401.76 1179.06
  A 1.69 1.69 0.0 0 1 404.34 1177.63
  C 405.99 1178.66 407.80 1179.97 409.83 1179.55
  C 420.10 1177.39 406.14 1157.35 403.17 1153.32
  Q 390.67 1136.42 376.05 1121.33
  C 367.66 1112.67 356.08 1108.42 347.63 1100.07
  A 0.33 0.33 0.0 0 1 347.93 1099.51
  C 362.01 1102.32 380.53 1109.02 389.81 1120.44
  Q 397.04 1129.35 404.18 1138.31
  Q 406.38 1141.06 409.32 1142.93
  A 2.23 2.22 -57.5 0 0 412.40 1142.24
  C 415.17 1137.88 415.34 1134.03 413.21 1129.08
  C 402.64 1104.50 386.84 1089.63 361.72 1080.49
  C 355.27 1078.14 350.88 1067.35 344.38 1066.91
  Q 335.14 1066.29 325.96 1065.00
  C 375.05 1022.75 418.96 974.22 453.69 919.44
  C 486.22 868.13 510.80 808.56 509.73 747.53
  C 509.54 736.92 506.56 728.22 502.37 718.66
  C 479.45 666.32 452.26 616.86 421.66 568.64
  A 0.50 0.50 0.0 0 1 422.35 567.94
  C 436.68 576.85 441.61 587.62 449.86 602.16
  C 463.23 625.75 480.89 648.62 501.93 665.56
  C 512.71 674.24 519.96 675.54 533.46 675.50
  Q 533.97 675.50 534.37 675.81
  Q 535.39 676.62 535.73 677.03
  C 561.08 706.97 583.69 740.78 603.56 776.13
  Q 630.95 824.87 658.44 873.56
  Q 660.98 878.07 661.22 886.25
  C 662.54 932.05 665.40 972.38 669.73 1023.42
  C 675.38 1089.97 679.20 1138.19 681.97 1195.68
  C 682.01 1196.44 681.02 1198.75 682.25 1198.79
  Z"
/>
<path fill="#c8c8c8" d="
  M 524.06 663.69
  Q 526.53 666.23 527.65 667.54
  Q 528.22 668.20 527.35 668.29
  C 512.31 669.86 454.63 610.41 455.90 595.23
  A 0.58 0.58 0.0 0 1 456.89 594.87
  Q 490.68 629.19 524.06 663.69
  Z"
/>
<path fill="#ffefdd" d="
  M 110.21 744.75
  Q 136.99 787.53 166.58 828.39
  C 163.76 830.62 159.78 833.75 161.26 836.71
  C 189.37 892.76 212.32 951.24 241.85 1006.54
  C 243.11 1008.10 244.07 1009.37 244.85 1011.31
  Q 251.98 1028.83 261.71 1045.02
  C 276.08 1068.94 301.12 1070.46 325.96 1065.00
  Q 335.14 1066.29 344.38 1066.91
  C 350.88 1067.35 355.27 1078.14 361.72 1080.49
  C 386.84 1089.63 402.64 1104.50 413.21 1129.08
  C 415.34 1134.03 415.17 1137.88 412.40 1142.24
  A 2.23 2.22 -57.5 0 1 409.32 1142.93
  Q 406.38 1141.06 404.18 1138.31
  Q 397.04 1129.35 389.81 1120.44
  C 380.53 1109.02 362.01 1102.32 347.93 1099.51
  A 0.33 0.33 0.0 0 0 347.63 1100.07
  C 356.08 1108.42 367.66 1112.67 376.05 1121.33
  Q 390.67 1136.42 403.17 1153.32
  C 406.14 1157.35 420.10 1177.39 409.83 1179.55
  C 407.80 1179.97 405.99 1178.66 404.34 1177.63
  A 1.69 1.69 0.0 0 0 401.76 1179.06
  L 401.75 1186.78
  A 0.98 0.97 -6.3 0 1 400.98 1187.73
  C 394.31 1189.28 389.66 1187.54 385.06 1182.40
  Q 368.84 1164.33 349.81 1149.19
  C 345.88 1146.07 327.80 1132.86 323.21 1138.61
  Q 322.13 1139.97 323.64 1141.12
  C 337.10 1151.47 351.10 1162.13 361.94 1175.29
  Q 366.95 1181.37 368.47 1185.54
  C 369.17 1187.45 367.23 1188.84 365.57 1189.93
  C 359.57 1193.90 355.48 1191.01 350.62 1186.46
  C 333.78 1170.71 316.74 1156.64 295.76 1148.76
  Q 293.81 1148.03 291.79 1147.75
  C 291.33 1147.22 290.86 1146.58 290.21 1146.26
  C 281.76 1142.08 271.71 1138.31 264.54 1134.05
  C 235.44 1116.77 212.83 1083.34 198.30 1053.49
  Q 197.20 1051.22 193.75 1049.71
  Q 193.49 1047.61 192.82 1046.71
  Q 152.65 992.68 128.82 959.19
  C 106.27 927.50 84.13 891.88 66.72 855.48
  Q 57.24 835.69 52.53 821.49
  C 48.47 809.24 57.47 796.00 65.12 786.88
  C 77.59 772.01 95.23 756.21 110.21 744.75
  Z"
/>
<path fill="#ffffff" d="
  M 193.75 1049.71
  Q 197.20 1051.22 198.30 1053.49
  C 212.83 1083.34 235.44 1116.77 264.54 1134.05
  C 271.71 1138.31 281.76 1142.08 290.21 1146.26
  C 290.86 1146.58 291.33 1147.22 291.79 1147.75
  L 274.30 1215.84
  A 1.22 1.22 0.0 0 0 274.98 1217.25
  C 401.52 1274.37 543.22 1284.83 678.14 1254.18
  Q 678.78 1254.04 679.46 1253.75
  L 678.71 1268.50
  Q 676.01 1268.41 675.17 1268.58
  C 539.35 1295.03 399.61 1287.23 271.58 1232.63
  A 1.01 1.00 21.1 0 0 270.24 1233.22
  Q 267.24 1241.93 264.06 1250.49
  C 261.34 1257.81 256.30 1256.14 251.68 1251.66
  Q 242.19 1242.48 232.66 1233.34
  Q 222.35 1223.45 217.25 1220.71
  Q 177.44 1199.32 154.97 1160.10
  Q 151.53 1154.09 148.21 1148.00
  C 148.22 1147.66 148.29 1146.71 148.18 1146.40
  C 143.32 1132.49 139.25 1113.12 144.17 1098.66
  Q 146.29 1092.44 152.45 1084.84
  Q 168.99 1064.45 191.88 1051.07
  Q 192.88 1050.49 193.75 1049.71
  Z"
/>
<path fill="#bbd2ff" d="
  M 785.21 1112.00
  Q 788.81 1116.91 795.32 1118.93
  Q 808.98 1123.17 817.46 1125.05
  Q 831.54 1153.99 841.96 1184.56
  Q 842.11 1185.02 841.94 1185.48
  C 840.20 1190.08 834.86 1182.62 833.58 1181.19
  Q 823.81 1170.32 813.20 1160.30
  C 804.73 1152.30 788.42 1140.72 777.03 1129.98
  Q 776.38 1129.36 775.90 1128.24
  Q 775.70 1127.79 775.85 1127.32
  Q 778.56 1118.42 785.21 1112.00
  Z"
/>
<path fill="#bbd2ff" d="
  M 840.79 1195.00
  Q 843.58 1221.17 855.33 1244.61
  C 856.79 1247.51 858.99 1249.55 862.24 1248.23
  Q 884.01 1239.42 905.76 1230.63
  C 908.46 1229.54 910.57 1229.28 909.67 1225.58
  Q 904.94 1206.09 899.94 1186.67
  C 898.75 1182.04 896.67 1179.74 892.50 1177.96
  Q 889.79 1175.76 890.29 1172.18
  Q 890.37 1171.67 890.79 1171.36
  L 892.00 1170.46
  C 901.80 1180.45 906.02 1192.26 909.47 1205.51
  Q 911.44 1213.09 918.27 1228.21
  Q 924.99 1243.12 943.79 1278.68
  C 970.15 1328.53 985.89 1381.24 991.48 1438.25
  C 992.63 1449.92 994.15 1462.33 991.13 1472.86
  C 989.60 1478.18 986.53 1485.85 981.98 1489.49
  Q 981.58 1489.81 981.06 1489.79
  C 957.67 1489.02 938.14 1499.08 916.12 1504.67
  Q 884.27 1512.76 851.89 1518.37
  C 847.69 1519.10 843.81 1518.45 841.26 1515.23
  Q 821.29 1489.97 795.93 1453.56
  C 790.16 1445.27 785.70 1434.09 781.50 1427.27
  Q 777.26 1420.39 766.67 1408.58
  C 748.23 1388.03 727.49 1369.02 717.00 1343.47
  C 715.34 1339.41 715.31 1334.07 715.94 1329.18
  C 717.15 1319.81 718.79 1310.71 718.40 1301.24
  Q 715.83 1237.51 732.53 1176.00
  Q 732.98 1174.36 732.96 1172.00
  Q 735.75 1168.20 739.09 1164.84
  Q 753.91 1149.91 768.67 1134.92
  Q 769.77 1133.80 771.08 1133.04
  Q 771.60 1132.74 772.02 1133.17
  Q 785.17 1146.38 788.91 1149.59
  Q 819.97 1176.28 834.54 1189.85
  C 836.31 1191.50 838.91 1193.00 840.79 1195.00
  Z
  M 734.6746 1202.4576
  A 7.29 4.74 109.6 0 0 741.5854 1197.1800
  A 7.29 4.74 109.6 0 0 739.5654 1188.7224
  A 7.29 4.74 109.6 0 0 732.6546 1194.0000
  A 7.29 4.74 109.6 0 0 734.6746 1202.4576
  Z
  M 776.73 1305.52
  C 778.54 1307.88 781.13 1307.63 781.37 1304.39
  Q 782.56 1288.44 783.73 1272.49
  C 783.79 1271.69 783.59 1271.16 783.45 1270.37
  Q 783.37 1269.91 783.08 1269.53
  L 753.97 1230.53
  Q 753.57 1230.00 752.93 1230.15
  C 748.23 1231.26 749.46 1261.51 749.76 1265.60
  C 749.96 1268.33 749.83 1270.11 751.58 1272.42
  Q 764.12 1289.01 776.73 1305.52
  Z"
/>
<path fill="#c8c8c8" d="
  M 148.21 1148.00
  Q 151.53 1154.09 154.97 1160.10
  Q 177.44 1199.32 217.25 1220.71
  Q 222.35 1223.45 232.66 1233.34
  Q 242.19 1242.48 251.68 1251.66
  C 256.30 1256.14 261.34 1257.81 264.06 1250.49
  Q 267.24 1241.93 270.24 1233.22
  A 1.01 1.00 21.1 0 1 271.58 1232.63
  C 399.61 1287.23 539.35 1295.03 675.17 1268.58
  Q 676.01 1268.41 678.71 1268.50
  C 678.94 1290.25 681.73 1326.69 653.16 1333.33
  Q 606.58 1343.65 554.32 1344.10
  C 480.25 1344.75 410.64 1338.89 340.01 1322.49
  Q 269.75 1306.18 206.10 1273.63
  L 205.95 1273.12
  Q 205.84 1272.73 205.50 1272.50
  C 174.80 1251.29 148.55 1224.77 122.50 1198.75
  C 106.99 1183.25 137.84 1156.81 148.21 1148.00
  Z"
/>
<path fill="#ffefdd" d="
  M 892.50 1177.96
  C 896.67 1179.74 898.75 1182.04 899.94 1186.67
  Q 904.94 1206.09 909.67 1225.58
  C 910.57 1229.28 908.46 1229.54 905.76 1230.63
  Q 884.01 1239.42 862.24 1248.23
  C 858.99 1249.55 856.79 1247.51 855.33 1244.61
  Q 843.58 1221.17 840.79 1195.00
  Q 864.59 1189.82 888.00 1180.25
  Q 890.73 1179.13 892.50 1177.96
  Z"
/>
<ellipse fill="#c9ad9d" cx="0.00" cy="0.00" transform="translate(737.12,1195.59) rotate(109.6)" rx="7.29" ry="4.74"/>
<path fill="#c9ad9d" d="
  M 781.37 1304.39
  C 781.13 1307.63 778.54 1307.88 776.73 1305.52
  Q 764.12 1289.01 751.58 1272.42
  C 749.83 1270.11 749.96 1268.33 749.76 1265.60
  C 749.46 1261.51 748.23 1231.26 752.93 1230.15
  Q 753.57 1230.00 753.97 1230.53
  L 783.08 1269.53
  Q 783.37 1269.91 783.45 1270.37
  C 783.59 1271.16 783.79 1271.69 783.73 1272.49
  Q 782.56 1288.44 781.37 1304.39
  Z"
/>
<path fill="#669fcc" d="
  M 206.10 1273.63
  Q 269.75 1306.18 340.01 1322.49
  C 410.64 1338.89 480.25 1344.75 554.32 1344.10
  Q 606.58 1343.65 653.16 1333.33
  C 657.01 1340.75 657.57 1350.81 657.25 1359.00
  C 656.72 1372.16 653.61 1391.51 652.88 1406.04
  C 651.71 1429.16 654.21 1451.52 657.89 1474.31
  Q 659.39 1483.65 653.75 1491.45
  C 651.09 1495.12 647.51 1495.66 643.23 1496.41
  Q 617.46 1500.94 593.05 1495.82
  L 588.41 1489.14
  Q 588.11 1488.70 587.58 1488.70
  C 530.60 1488.65 473.77 1501.41 421.93 1524.93
  C 407.96 1531.28 387.87 1532.93 374.00 1533.70
  Q 373.31 1533.74 372.04 1535.13
  C 370.46 1533.68 347.26 1535.34 342.34 1535.54
  Q 321.86 1536.40 305.24 1531.36
  C 300.46 1529.92 296.08 1525.42 293.00 1520.84
  C 258.82 1470.07 241.71 1409.44 219.07 1352.67
  Q 203.98 1314.84 206.10 1273.63
  Z"
/>
<path fill="#ffefdd" d="
  M 593.05 1495.82
  Q 593.14 1497.87 593.55 1498.73
  C 628.91 1573.17 656.21 1650.10 662.04 1732.98
  C 662.33 1737.06 661.66 1740.92 661.24 1744.98
  C 658.27 1773.87 637.52 1791.74 613.96 1805.43
  Q 582.65 1823.62 551.11 1841.40
  Q 550.67 1841.66 550.49 1842.14
  Q 550.15 1843.08 549.92 1844.04
  Q 539.77 1886.42 522.74 1926.54
  C 520.71 1931.32 519.12 1938.99 518.38 1945.28
  Q 513.87 1984.04 503.01 2021.55
  Q 501.92 2025.30 501.01 2034.30
  C 499.69 2047.50 499.78 2060.95 498.85 2074.20
  Q 498.82 2074.75 498.27 2074.75
  L 372.01 2074.75
  A 0.36 0.36 0.0 0 1 371.65 2074.41
  C 368.57 2025.28 377.01 1979.55 394.63 1933.83
  A 0.90 0.89 -84.1 0 0 393.65 1932.62
  C 391.76 1932.95 375.61 1944.40 374.96 1946.00
  C 371.82 1947.06 368.55 1948.42 365.50 1948.95
  C 331.31 1954.87 311.34 1902.01 303.50 1877.46
  C 307.20 1870.99 308.21 1861.47 304.81 1854.26
  Q 304.59 1853.79 304.12 1853.56
  Q 301.96 1852.47 299.79 1853.25
  Q 298.99 1845.28 304.00 1839.00
  Q 312.69 1828.08 323.37 1818.70
  L 323.64 1818.77
  Q 323.84 1818.81 323.98 1818.67
  Q 365.41 1775.96 414.14 1741.77
  Q 414.57 1741.47 414.64 1740.95
  Q 415.03 1738.07 414.81 1736.99
  C 403.90 1682.09 395.91 1626.93 390.12 1571.26
  Q 388.72 1557.78 388.19 1555.85
  C 385.42 1545.79 378.02 1541.71 372.04 1535.13
  Q 373.31 1533.74 374.00 1533.70
  C 387.87 1532.93 407.96 1531.28 421.93 1524.93
  C 473.77 1501.41 530.60 1488.65 587.58 1488.70
  Q 588.11 1488.70 588.41 1489.14
  L 593.05 1495.82
  Z"
/>
<path fill="#bb5c2c" d="
  M 323.37 1818.70
  Q 312.69 1828.08 304.00 1839.00
  Q 298.99 1845.28 299.79 1853.25
  C 300.99 1861.89 303.12 1870.14 293.57 1874.48
  C 288.82 1876.64 284.98 1874.78 280.80 1879.03
  Q 276.14 1883.75 271.42 1888.43
  C 269.11 1890.72 270.76 1892.68 271.74 1894.79
  Q 271.99 1895.31 271.57 1895.71
  C 237.25 1928.57 197.93 1951.84 153.98 1969.58
  A 1.63 1.63 0.0 0 0 153.26 1972.04
  L 156.21 1976.16
  A 1.59 1.58 60.3 0 0 158.13 1976.69
  Q 229.69 1945.52 287.04 1892.78
  Q 295.31 1885.16 303.50 1877.46
  C 311.34 1902.01 331.31 1954.87 365.50 1948.95
  C 368.55 1948.42 371.82 1947.06 374.96 1946.00
  C 374.39 1953.41 370.64 1956.79 363.77 1959.96
  C 313.94 1983.00 263.46 2009.68 219.97 2043.93
  C 216.85 2046.39 222.01 2050.97 223.65 2053.03
  C 228.29 2058.89 221.78 2062.22 217.07 2063.37
  Q 208.46 2065.47 207.20 2074.22
  Q 207.12 2074.74 206.59 2074.74
  L 77.79 2074.75
  Q 75.93 2069.13 74.86 2067.17
  C 63.70 2046.67 55.32 2025.41 64.24 2001.99
  Q 70.40 1985.80 82.02 1967.77
  C 82.31 1967.32 82.43 1966.03 82.46 1965.50
  C 95.82 1957.20 112.51 1950.29 128.62 1949.79
  C 136.87 1949.54 141.48 1948.92 147.65 1944.98
  C 153.79 1941.08 162.20 1943.23 168.58 1939.21
  Q 217.54 1908.38 258.64 1867.79
  Q 264.91 1861.59 272.12 1853.04
  C 284.47 1838.41 300.94 1814.59 323.37 1818.70
  Z"
/>
<path fill="#ffffff" d="
  M 303.50 1877.46
  Q 295.31 1885.16 287.04 1892.78
  Q 229.69 1945.52 158.13 1976.69
  A 1.59 1.58 60.3 0 1 156.21 1976.16
  L 153.26 1972.04
  A 1.63 1.63 0.0 0 1 153.98 1969.58
  C 197.93 1951.84 237.25 1928.57 271.57 1895.71
  Q 271.99 1895.31 271.74 1894.79
  C 270.76 1892.68 269.11 1890.72 271.42 1888.43
  Q 276.14 1883.75 280.80 1879.03
  C 284.98 1874.78 288.82 1876.64 293.57 1874.48
  C 303.12 1870.14 300.99 1861.89 299.79 1853.25
  Q 301.96 1852.47 304.12 1853.56
  Q 304.59 1853.79 304.81 1854.26
  C 308.21 1861.47 307.20 1870.99 303.50 1877.46
  Z"
/>
<path fill="#4b3c28" d="
  M 82.46 1965.50
  C 82.43 1966.03 82.31 1967.32 82.02 1967.77
  Q 70.40 1985.80 64.24 2001.99
  C 55.32 2025.41 63.70 2046.67 74.86 2067.17
  Q 75.93 2069.13 77.79 2074.75
  Q 77.74 2074.88 77.69 2075.00
  L 73.69 2075.00
  L 41.08 2074.80
  Q 40.58 2074.79 40.32 2074.35
  Q 21.31 2042.23 29.43 2006.08
  C 30.67 2000.56 33.79 1995.19 37.86 1991.82
  Q 56.82 1976.12 82.46 1965.50
  Z"
/>
</svg>
